{"title":"Ip.Man.The.Final.Fight.2013.DVDRip.x264.AC3.RoSubbed-playSD","uid":12200842,"size":1326092162,"categoryP":"video","categoryS":"movies","magnet":"?xt=urn:btih:97b1b7c8d000fec58f6f9aa863728b0404bab0f5&amp;dn=Ip.Man.The.Final.Fight.2013.DVDRip.x264.AC3.RoSubbed-playSD&amp;tr=udp%3A%2F%2Ftracker.openbittorrent.com%3A80&amp;tr=udp%3A%2F%2Fopen.demonii.com%3A1337&amp;tr=udp%3A%2F%2Ftracker.coppersurfer.tk%3A6969&amp;tr=udp%3A%2F%2Fexodus.desync.com%3A6969","seeders":0,"leechers":0,"uploader":"TvTeam","files":5,"time":1438825506,"description":"------------------------------------------------------------------------\n\n &lt;a href=&quot; https://www.torrenting.com&quot; rel=&quot;nofollow&quot; target=&quot;_NEW&quot;&gt; https://www.torrenting.com&lt;/a&gt;\n\nSign up is OPEN - for time being. Come and have fun.\n\n------------------------------------------------------------------------General\nUnique ID                                : 240783723292486067787850829767410859612 (0xB525421EB43557DB885AB60045263E5C)\nComplete name                            : Ip.Man.The.Final.Fight.2013.DVDRip.x264.AC3.RoSubbed-playSD.mkv\nFormat                                   : Matroska\nFormat version                           : Version 2\nFile size                                : 1.22 GiB\nDuration                                 : 1h 40mn\nOverall bit rate                         : 1 749 Kbps\nEncoded date                             : UTC 2015-08-01 15:32:35\nWriting application                      : mkvmerge v7.0.0 ('Where We Going') 32bit built on Jun  9 2014 15:08:34\nWriting library                          : libebml v1.3.0 + libmatroska v1.4.1\n_STATISTICS_WRITING_APP                  : mkvmerge v7.0.0 ('Where We Going') 32bit built on Jun  9 2014 15:08:34\n_STATISTICS_WRITING_DATE_UTC             : 2015-08-01 15:32:35\n_STATISTICS_TAGS                         : BPS DURATION NUMBER_OF_FRAMES NUMBER_OF_BYTES\nDURATION                                 : 01:40:12.736000000\nNUMBER_OF_FRAMES                         : 187898\nNUMBER_OF_BYTES                          : 288611328\n\nVideo\nID                                       : 1\nFormat                                   : AVC\nFormat/Info                              : Advanced Video Codec\nFormat profile                           : High@L3\nFormat settings, CABAC                   : Yes\nFormat settings, ReFrames                : 3 frames\nCodec ID                                 : V_MPEG4/ISO/AVC\nDuration                                 : 1h 40mn\nBit rate                                 : 1 331 Kbps\nWidth                                    : 720 pixels\nHeight                                   : 306 pixels\nDisplay aspect ratio                     : 2.35:1\nFrame rate mode                          : Constant\nFrame rate                               : 23.976 fps\nColor space                              : YUV\nChroma subsampling                       : 4:2:0\nBit depth                                : 8 bits\nScan type                                : Progressive\nBits/(Pixel*Frame)                       : 0.252\nStream size                              : 954 MiB (76%)\nWriting library                          : x264 core 125 r2200 999b753\nEncoding settings                        : cabac=1 / ref=2 / deblock=1:-3:-3 / analyse=0x3:0x113 / me=hex / subme=4 / psy=1 / psy_rd=1.00:0.15 / mixed_ref=0 / me_range=16 / chroma_me=1 / trellis=1 / 8x8dct=1 / cqm=0 / deadzone=21,11 / fast_pskip=1 / chroma_qp_offset=-1 / threads=3 / lookahead_threads=1 / sliced_threads=0 / nr=0 / decimate=1 / interlaced=0 / bluray_compat=0 / constrained_intra=0 / bframes=3 / b_pyramid=1 / b_adapt=1 / b_bias=0 / direct=1 / weightb=1 / open_gop=0 / weightp=1 / keyint=240 / keyint_min=23 / scenecut=40 / intra_refresh=0 / rc_lookahead=20 / rc=crf / mbtree=1 / crf=18.0 / qcomp=0.60 / qpmin=0 / qpmax=69 / qpstep=4 / ip_ratio=1.40 / aq=1:1.00\nDefault                                  : Yes\nForced                                   : No\n\nAudio\nID                                       : 2\nFormat                                   : AC-3\nFormat/Info                              : Audio Coding 3\nMode extension                           : CM (complete main)\nFormat settings, Endianness              : Big\nCodec ID                                 : A_AC3\nDuration                                 : 1h 40mn\nBit rate mode                            : Constant\nBit rate                                 : 384 Kbps\nChannel(s)                               : 6 channels\nChannel positions                        : Front: L C R, Side: L R, LFE\nSampling rate                            : 48.0 KHz\nCompression mode                         : Lossy\nDelay relative to video                  : 20ms\nStream size                              : 275 MiB (22%)\nDefault                                  : Yes\nForced                                   : No","torrent":{"xt":"urn:btih:97b1b7c8d000fec58f6f9aa863728b0404bab0f5","amp;dn":"Ip.Man.The.Final.Fight.2013.DVDRip.x264.AC3.RoSubbed-playSD","amp;tr":["udp%3A%2F%2Ftracker.openbittorrent.com%3A80","udp%3A%2F%2Fopen.demonii.com%3A1337","udp%3A%2F%2Ftracker.coppersurfer.tk%3A6969","udp%3A%2F%2Fexodus.desync.com%3A6969"],"infoHash":"97b1b7c8d000fec58f6f9aa863728b0404bab0f5","infoHashBuffer":{"type":"Buffer","data":[151,177,183,200,208,0,254,197,143,111,154,168,99,114,139,4,4,186,176,245]},"announce":[],"urlList":[]}}